<?xml version="1.0" standalone="no"?>
<!DOCTYPE svg PUBLIC "-//W3C//DTD SVG 20010904//EN"
 "http://www.w3.org/TR/2001/REC-SVG-20010904/DTD/svg10.dtd">
<svg version="1.0" xmlns="http://www.w3.org/2000/svg"
 width="250.000000pt" height="250.000000pt" viewBox="0 0 250.000000 250.000000"
 preserveAspectRatio="xMidYMid meet">
<metadata>
Created by potrace 1.14, written by Peter Selinger 2001-2017
</metadata>
<g transform="translate(0.000000,250.000000) scale(0.100000,-0.100000)"
fill="#000000" stroke="none">
<path d="M1215 2461 c6 -10 -7 -15 -27 -12 -5 0 -8 -3 -8 -9 0 -5 -3 -9 -7 -9
-21 3 -34 -2 -28 -11 4 -7 -3 -9 -19 -6 -18 3 -23 1 -19 -10 3 -9 -2 -14 -16
-14 -12 0 -21 -4 -21 -10 0 -5 -7 -6 -17 -3 -12 5 -14 3 -8 -7 6 -10 4 -12 -8
-7 -12 4 -17 1 -17 -11 0 -15 -2 -15 -10 -2 -7 11 -10 11 -10 2 0 -13 -57 -39
-73 -34 -5 1 -6 -2 -3 -7 4 -5 2 -12 -4 -16 -5 -3 -10 -1 -10 5 0 6 -5 8 -10
5 -6 -4 -8 -11 -5 -16 4 -5 -6 -9 -20 -9 -17 0 -24 -4 -19 -12 5 -8 0 -9 -14
-6 -12 4 -20 2 -16 -3 3 -5 -4 -9 -15 -9 -11 0 -25 -8 -30 -17 -6 -10 -11 -14
-11 -9 0 6 -7 1 -16 -10 -8 -10 -13 -13 -9 -6 3 6 2 12 -3 12 -6 0 -12 -7 -16
-15 -3 -8 -15 -15 -26 -15 -11 0 -20 -3 -20 -8 0 -4 -14 -13 -30 -20 -18 -8
-27 -18 -24 -25 4 -7 2 -7 -7 1 -11 10 -17 8 -32 -10 -10 -13 -16 -16 -12 -8
4 10 2 9 -8 -2 -11 -14 -16 -15 -27 -5 -10 9 -11 9 -6 0 4 -7 2 -13 -4 -13 -6
0 -8 -4 -5 -10 3 -5 0 -7 -8 -4 -8 3 -18 0 -22 -5 -3 -6 -11 -9 -16 -6 -5 4
-9 1 -9 -5 0 -7 -7 -9 -16 -6 -8 3 -12 2 -9 -4 3 -6 0 -10 -8 -10 -8 0 -20 -7
-27 -15 -7 -8 -16 -12 -21 -9 -5 3 -9 0 -9 -6 0 -7 -7 -9 -16 -6 -8 3 -12 2
-9 -4 3 -6 3 -10 -2 -11 -28 -2 -45 -9 -59 -23 -8 -9 -20 -14 -24 -11 -5 3
-14 -3 -20 -14 -6 -12 -16 -18 -25 -15 -8 4 -15 1 -15 -6 0 -6 -4 -9 -9 -6 -5
3 -20 -4 -35 -15 -14 -11 -26 -17 -26 -12 0 4 -5 0 -11 -9 -5 -10 -19 -18 -29
-18 -18 0 -21 -24 -5 -50 3 -6 1 -10 -5 -10 -6 0 -8 -12 -5 -27 6 -36 7 -77 2
-130 -2 -25 1 -39 7 -36 5 4 6 1 1 -8 -11 -17 -13 -149 -2 -142 4 2 7 -1 7 -6
0 -6 -3 -11 -8 -11 -4 0 -8 -22 -8 -49 0 -33 3 -48 10 -44 8 5 8 3 0 -8 -5 -8
-9 -25 -8 -39 4 -61 4 -98 1 -137 -2 -25 1 -39 7 -36 5 4 6 1 1 -8 -11 -17
-13 -149 -3 -142 5 2 8 -1 8 -6 0 -6 -3 -11 -8 -11 -4 0 -8 -22 -8 -49 0 -33
3 -48 10 -44 8 5 8 3 0 -8 -5 -8 -9 -25 -8 -39 4 -57 4 -98 1 -145 -2 -27 2
-56 7 -64 9 -12 8 -13 -2 -7 -11 7 -12 4 -3 -13 12 -22 27 -30 16 -8 -4 6 1 3
9 -7 12 -15 16 -16 16 -5 0 12 2 12 9 -1 6 -8 7 -18 4 -23 -3 -5 4 -4 15 2 18
9 23 8 32 -10 9 -17 14 -18 26 -8 8 7 14 8 13 3 -3 -18 1 -37 8 -31 3 4 12 2
20 -4 9 -9 13 -8 13 0 0 6 4 11 10 11 5 0 7 -7 3 -17 -5 -13 -2 -15 15 -11 12
4 25 1 29 -4 4 -7 1 -8 -7 -3 -9 5 -11 4 -6 -3 4 -7 16 -12 27 -12 11 0 27 -7
36 -15 8 -8 19 -13 24 -10 5 4 9 1 9 -5 0 -6 4 -8 10 -5 5 3 10 1 10 -5 0 -7
7 -10 14 -7 10 4 13 1 10 -8 -4 -9 2 -13 20 -11 23 3 30 -4 28 -25 -1 -3 6 -6
14 -6 7 0 14 5 14 10 0 5 9 -2 20 -16 14 -18 26 -24 42 -19 13 3 19 1 15 -5
-4 -7 12 -16 38 -24 25 -7 45 -19 45 -26 0 -7 5 -13 11 -13 5 0 7 6 4 13 -4 6
-1 5 7 -4 7 -9 19 -14 27 -11 8 3 11 0 7 -6 -7 -11 15 -22 45 -22 10 0 19 -6
19 -14 0 -8 8 -13 18 -12 9 2 20 -1 23 -6 3 -5 15 -11 25 -12 10 -2 18 -9 16
-16 -1 -6 2 -9 7 -6 5 4 13 2 16 -4 5 -8 11 -7 21 1 12 10 15 10 12 -1 -2 -8
6 -16 17 -18 11 -2 25 -9 30 -14 7 -8 6 -8 -4 -3 -9 5 -12 4 -7 -3 4 -7 14
-12 22 -12 9 0 12 5 8 12 -4 7 -3 8 4 4 7 -4 12 -15 13 -24 0 -10 3 -12 6 -5
3 9 11 7 26 -7 19 -18 38 -25 60 -21 4 0 7 -5 7 -13 0 -9 7 -13 20 -11 12 2
20 -2 20 -10 0 -9 6 -12 17 -8 11 4 14 3 9 -5 -10 -16 76 -16 92 0 9 9 12 9
12 0 0 -10 3 -10 14 0 8 7 12 16 9 20 -2 4 3 5 11 2 9 -3 16 -1 16 5 0 6 3 10
8 9 4 -1 17 3 28 10 12 6 24 8 28 5 3 -3 6 -1 6 5 0 7 9 12 21 12 11 0 17 5
14 10 -4 6 5 10 20 10 15 0 24 4 20 10 -6 9 10 14 42 13 7 -1 11 2 9 6 -3 4 4
13 16 20 16 10 19 10 12 -1 -4 -7 2 -5 13 4 11 10 27 18 35 18 9 0 21 7 28 15
7 8 17 12 23 8 6 -4 8 0 4 9 -4 12 0 15 19 13 13 -1 24 2 24 7 0 5 5 6 10 3 6
-3 10 -1 10 5 0 7 7 9 16 6 8 -3 13 -2 11 2 -3 4 1 13 9 20 11 10 14 10 14 0
0 -7 7 -3 15 9 10 15 21 19 36 16 15 -4 20 -3 15 5 -4 7 -1 12 8 12 8 0 17 6
19 13 4 9 6 9 6 0 1 -18 31 -3 31 16 0 14 2 14 10 1 8 -12 10 -12 16 3 3 9 10
14 15 11 5 -3 9 0 9 6 0 6 8 10 18 8 9 -2 16 2 15 9 -2 7 6 10 17 8 11 -2 23
3 28 11 5 8 18 16 29 17 12 0 19 5 17 9 -3 4 5 8 16 8 16 0 20 4 16 15 -4 13
-2 14 14 5 16 -9 22 -7 26 5 4 9 13 14 20 11 9 -3 14 1 14 12 0 14 2 15 10 2
8 -12 10 -12 16 4 5 13 9 14 14 6 5 -9 10 -6 15 10 5 15 13 20 26 17 10 -3 17
-1 13 4 -5 8 17 14 39 10 5 -1 6 3 2 9 -3 6 3 10 15 10 12 0 18 4 15 10 -3 6
1 7 9 4 11 -4 16 0 16 11 0 13 3 15 13 7 9 -8 12 10 12 83 1 65 -3 91 -10 88
-7 -2 -12 3 -12 11 0 8 6 12 12 10 7 -3 11 4 9 18 -1 13 -3 27 -3 31 -1 5 -7
5 -13 1 -8 -5 -7 -1 2 10 15 20 23 49 10 41 -4 -3 -10 2 -13 10 -4 9 -1 12 7
9 8 -3 12 3 10 18 -1 13 -3 27 -3 31 -1 5 -7 5 -13 1 -8 -5 -7 -1 2 10 15 20
23 49 10 41 -4 -3 -10 2 -13 10 -4 8 -1 12 6 9 9 -3 12 25 12 110 0 97 -2 113
-15 109 -13 -4 -13 -3 0 9 16 14 18 46 4 69 -13 21 -12 67 1 62 7 -2 11 5 9
19 -1 13 -3 27 -3 31 -1 5 -7 5 -13 1 -8 -5 -7 -1 2 10 20 26 22 286 2 294
-11 4 -11 6 0 13 7 5 13 27 13 55 0 39 -4 48 -22 55 -13 5 -23 14 -23 21 0 9
-3 8 -10 -2 -8 -13 -10 -12 -10 3 0 10 -4 15 -10 12 -5 -3 -10 -2 -10 3 0 6
-7 13 -16 16 -9 3 -12 2 -8 -5 3 -6 -3 -5 -15 3 -12 7 -21 16 -21 21 0 4 -4 5
-10 2 -5 -3 -10 -1 -10 5 0 6 -4 8 -10 5 -5 -3 -10 -1 -10 4 0 6 -6 11 -14 11
-7 0 -19 7 -26 15 -6 8 -15 14 -18 14 -16 -2 -52 14 -52 23 0 6 -9 8 -20 5
-11 -3 -23 0 -27 5 -4 7 -1 8 7 3 9 -5 11 -4 6 3 -4 7 -12 12 -18 12 -6 0 -20
8 -31 18 -15 12 -18 13 -12 2 7 -12 6 -13 -7 -3 -8 7 -19 9 -23 5 -5 -4 -5 -1
-1 6 4 7 1 12 -8 12 -9 0 -16 4 -16 9 0 6 -9 8 -20 6 -11 -2 -19 1 -17 8 1 6
-5 11 -13 12 -8 1 -14 6 -13 11 1 6 -4 11 -12 11 -8 0 -12 -3 -10 -7 2 -4 -2
-7 -10 -7 -7 0 -12 8 -10 18 3 13 -2 17 -16 14 -10 -2 -19 1 -19 6 0 6 -4 7
-10 4 -5 -3 -10 -2 -10 4 0 5 -9 8 -21 6 -16 -3 -18 -1 -10 9 9 10 7 15 -9 19
-11 3 -18 1 -14 -4 3 -5 -2 -6 -10 -3 -8 3 -17 12 -20 21 -4 8 -13 13 -21 9
-8 -3 -15 -1 -15 4 0 6 -6 10 -14 10 -8 0 -16 4 -18 9 -1 5 -10 11 -18 13 -8
2 -21 9 -28 16 -8 7 -18 10 -23 6 -5 -3 -12 2 -15 10 -3 9 -10 13 -15 10 -5
-3 -9 1 -9 8 0 9 -3 9 -10 -2 -8 -13 -10 -12 -10 3 0 10 -4 15 -10 12 -5 -3
-10 -1 -10 5 0 6 -4 8 -10 5 -5 -3 -10 -1 -10 6 0 7 -3 9 -7 6 -3 -4 -12 1
-19 11 -11 14 -13 14 -14 2 -1 -12 -3 -12 -13 2 -8 9 -20 18 -27 20 -8 2 -21
9 -29 16 -7 7 -20 11 -28 8 -8 -3 -11 -2 -8 3 5 10 -33 27 -49 23 -5 -2 -6 3
-3 11 4 10 -7 14 -40 16 -29 1 -43 -2 -38 -8z m1191 -665 c0 -14 -3 -23 -7
-20 -6 3 -6 22 0 42 3 10 7 -2 7 -22z m-2298 -21 c-3 -3 -9 2 -12 12 -6 14 -5
15 5 6 7 -7 10 -15 7 -18z m2299 -90 c0 -8 -4 -12 -9 -9 -5 3 -6 10 -3 15 9
13 12 11 12 -6z m0 -80 c0 -8 -4 -12 -9 -9 -5 3 -6 10 -3 15 9 13 12 11 12 -6z
m-1 -101 c1 -9 0 -13 -4 -10 -3 4 -7 14 -8 22 -1 9 0 13 4 10 3 -4 7 -14 8
-22z m-2301 -124 c3 -5 1 -10 -4 -10 -6 0 -11 5 -11 10 0 6 2 10 4 10 3 0 8
-4 11 -10z m2302 -175 c0 -8 -4 -12 -9 -9 -5 3 -6 10 -3 15 9 13 12 11 12 -6z
m0 -80 c0 -8 -4 -12 -9 -9 -5 3 -6 10 -3 15 9 13 12 11 12 -6z m-2302 -225 c3
-5 1 -10 -4 -10 -6 0 -11 5 -11 10 0 6 2 10 4 10 3 0 8 -4 11 -10z m2302 -175
c0 -8 -4 -12 -9 -9 -5 3 -6 10 -3 15 9 13 12 11 12 -6z"/>
<path d="M2409 1378 c-5 -18 -6 -38 -1 -34 7 8 12 36 6 36 -2 0 -4 -1 -5 -2z"/>
</g>
</svg>
